<svg width="267" height="62" viewBox="0 0 267 62" fill="none" xmlns="http://www.w3.org/2000/svg">
<g filter="url(#filter0_dd_1_43)">
<path d="M247 10H21C15.4772 10 11 14.4772 11 20V39C11 44.5228 15.4772 49 21 49H247C252.523 49 257 44.5228 257 39V20C257 14.4772 252.523 10 247 10Z" fill="white"/>
<path d="M254 3H13C7.47715 3 3 7.47715 3 13V47C3 52.5228 7.47715 57 13 57H254C259.523 57 264 52.5228 264 47V13C264 7.47715 259.523 3 254 3Z" fill="white"/>
<path d="M42 18H18V42H42V18Z" fill="white"/>
<path fill-rule="evenodd" clip-rule="evenodd" d="M41.04 30.2614C41.04 29.4459 40.9668 28.6618 40.8309 27.9091H30V32.3575H36.1891C35.9225 33.795 35.1123 35.013 33.8943 35.8284V38.7139H37.6109C39.7855 36.7118 41.04 33.7636 41.04 30.2614Z" fill="#4285F4"/>
<path fill-rule="evenodd" clip-rule="evenodd" d="M29.9999 41.4998C33.1049 41.4998 35.7081 40.4701 37.6108 38.7137L33.8942 35.8282C32.8645 36.5182 31.5472 36.926 29.9999 36.926C27.0047 36.926 24.4695 34.903 23.5651 32.1848H19.7231V35.1644C21.6154 38.9228 25.5045 41.4998 29.9999 41.4998Z" fill="#34A853"/>
<path fill-rule="evenodd" clip-rule="evenodd" d="M23.5652 32.1851C23.3352 31.4951 23.2045 30.758 23.2045 30.0001C23.2045 29.2421 23.3352 28.5051 23.5652 27.8151V24.8355H19.7232C18.9443 26.388 18.5 28.1444 18.5 30.0001C18.5 31.8557 18.9443 33.6121 19.7232 35.1646L23.5652 32.1851Z" fill="#FBBC05"/>
<path fill-rule="evenodd" clip-rule="evenodd" d="M29.9999 23.0739C31.6883 23.0739 33.2042 23.6541 34.3961 24.7936L37.6945 21.4952C35.7029 19.6395 33.0997 18.5 29.9999 18.5C25.5045 18.5 21.6154 21.077 19.7231 24.8355L23.5651 27.815C24.4695 25.0968 27.0047 23.0739 29.9999 23.0739Z" fill="#EA4335"/>
<path d="M69.2949 31.3711C69.1517 32.888 68.5918 34.0729 67.6152 34.9258C66.6387 35.7721 65.3398 36.1953 63.7188 36.1953C62.5859 36.1953 61.5866 35.9284 60.7207 35.3945C59.8613 34.8542 59.1973 34.0892 58.7285 33.0996C58.2598 32.11 58.0156 30.9609 57.9961 29.6523V28.3242C57.9961 26.9831 58.2337 25.8014 58.709 24.7793C59.1842 23.7572 59.8646 22.9694 60.75 22.416C61.6419 21.8626 62.6706 21.5859 63.8359 21.5859C65.4049 21.5859 66.668 22.0124 67.625 22.8652C68.582 23.7181 69.1387 24.9225 69.2949 26.4785H66.834C66.7168 25.4564 66.4173 24.7207 65.9355 24.2715C65.4603 23.8158 64.7604 23.5879 63.8359 23.5879C62.7617 23.5879 61.9349 23.9818 61.3555 24.7695C60.7826 25.5508 60.4896 26.6999 60.4766 28.2168V29.4766C60.4766 31.013 60.75 32.1849 61.2969 32.9922C61.8503 33.7995 62.6576 34.2031 63.7188 34.2031C64.6888 34.2031 65.418 33.985 65.9062 33.5488C66.3945 33.1126 66.7038 32.3867 66.834 31.3711H69.2949ZM70.8379 30.6191C70.8379 29.584 71.043 28.653 71.4531 27.8262C71.8633 26.9928 72.4395 26.3548 73.1816 25.9121C73.9238 25.4629 74.7767 25.2383 75.7402 25.2383C77.166 25.2383 78.3216 25.6973 79.207 26.6152C80.099 27.5332 80.5807 28.7507 80.6523 30.2676L80.6621 30.8242C80.6621 31.8659 80.4603 32.7969 80.0566 33.6172C79.6595 34.4375 79.0866 35.0723 78.3379 35.5215C77.5957 35.9707 76.7363 36.1953 75.7598 36.1953C74.2689 36.1953 73.0742 35.7005 72.1758 34.7109C71.2839 33.7148 70.8379 32.39 70.8379 30.7363V30.6191ZM73.2109 30.8242C73.2109 31.9115 73.4355 32.7643 73.8848 33.3828C74.334 33.9948 74.959 34.3008 75.7598 34.3008C76.5605 34.3008 77.1823 33.9883 77.625 33.3633C78.0742 32.7383 78.2988 31.8236 78.2988 30.6191C78.2988 29.5514 78.0677 28.7051 77.6055 28.0801C77.1497 27.4551 76.528 27.1426 75.7402 27.1426C74.9655 27.1426 74.3503 27.4518 73.8945 28.0703C73.4388 28.6823 73.2109 29.6003 73.2109 30.8242ZM84.8711 25.4336L84.9395 26.6543C85.7207 25.7103 86.7461 25.2383 88.0156 25.2383C90.2161 25.2383 91.3359 26.498 91.375 29.0176V36H89.002V29.1543C89.002 28.4837 88.8555 27.9889 88.5625 27.6699C88.276 27.3444 87.804 27.1816 87.1465 27.1816C86.1895 27.1816 85.4766 27.6146 85.0078 28.4805V36H82.6348V25.4336H84.8711ZM96.7754 22.8652V25.4336H98.6406V27.1914H96.7754V33.0898C96.7754 33.4935 96.8535 33.7865 97.0098 33.9688C97.1725 34.1445 97.459 34.2324 97.8691 34.2324C98.1426 34.2324 98.4193 34.1999 98.6992 34.1348V35.9707C98.1589 36.1204 97.638 36.1953 97.1367 36.1953C95.3138 36.1953 94.4023 35.1895 94.4023 33.1777V27.1914H92.6641V25.4336H94.4023V22.8652H96.7754ZM102.986 36H100.613V25.4336H102.986V36ZM100.467 22.6895C100.467 22.3249 100.581 22.0221 100.809 21.7812C101.043 21.5404 101.375 21.4199 101.805 21.4199C102.234 21.4199 102.566 21.5404 102.801 21.7812C103.035 22.0221 103.152 22.3249 103.152 22.6895C103.152 23.0475 103.035 23.347 102.801 23.5879C102.566 23.8223 102.234 23.9395 101.805 23.9395C101.375 23.9395 101.043 23.8223 100.809 23.5879C100.581 23.347 100.467 23.0475 100.467 22.6895ZM107.781 25.4336L107.85 26.6543C108.631 25.7103 109.656 25.2383 110.926 25.2383C113.126 25.2383 114.246 26.498 114.285 29.0176V36H111.912V29.1543C111.912 28.4837 111.766 27.9889 111.473 27.6699C111.186 27.3444 110.714 27.1816 110.057 27.1816C109.1 27.1816 108.387 27.6146 107.918 28.4805V36H105.545V25.4336H107.781ZM123.113 34.9648C122.417 35.7852 121.427 36.1953 120.145 36.1953C118.999 36.1953 118.13 35.86 117.537 35.1895C116.951 34.5189 116.658 33.5488 116.658 32.2793V25.4336H119.031V32.25C119.031 33.5911 119.588 34.2617 120.701 34.2617C121.854 34.2617 122.632 33.8483 123.035 33.0215V25.4336H125.408V36H123.172L123.113 34.9648ZM132.479 36.1953C130.975 36.1953 129.754 35.7233 128.816 34.7793C127.885 33.8288 127.42 32.5658 127.42 30.9902V30.6973C127.42 29.6426 127.622 28.7018 128.025 27.875C128.436 27.0417 129.008 26.3939 129.744 25.9316C130.48 25.4694 131.3 25.2383 132.205 25.2383C133.644 25.2383 134.754 25.6973 135.535 26.6152C136.323 27.5332 136.717 28.832 136.717 30.5117V31.4688H129.812C129.884 32.3411 130.174 33.0312 130.682 33.5391C131.196 34.0469 131.84 34.3008 132.615 34.3008C133.702 34.3008 134.588 33.8613 135.271 32.9824L136.551 34.2031C136.128 34.8346 135.561 35.3262 134.852 35.6777C134.148 36.0228 133.357 36.1953 132.479 36.1953ZM132.195 27.1426C131.544 27.1426 131.017 27.3704 130.613 27.8262C130.216 28.2819 129.962 28.9167 129.852 29.7305H134.373V29.5547C134.321 28.7604 134.109 28.1615 133.738 27.7578C133.367 27.3477 132.853 27.1426 132.195 27.1426ZM152.83 32.7285L154.51 25.4336H156.824L153.943 36H151.99L149.725 28.7441L147.498 36H145.545L142.654 25.4336H144.969L146.678 32.6504L148.846 25.4336H150.633L152.83 32.7285ZM160.936 36H158.562V25.4336H160.936V36ZM158.416 22.6895C158.416 22.3249 158.53 22.0221 158.758 21.7812C158.992 21.5404 159.324 21.4199 159.754 21.4199C160.184 21.4199 160.516 21.5404 160.75 21.7812C160.984 22.0221 161.102 22.3249 161.102 22.6895C161.102 23.0475 160.984 23.347 160.75 23.5879C160.516 23.8223 160.184 23.9395 159.754 23.9395C159.324 23.9395 158.992 23.8223 158.758 23.5879C158.53 23.347 158.416 23.0475 158.416 22.6895ZM166.502 22.8652V25.4336H168.367V27.1914H166.502V33.0898C166.502 33.4935 166.58 33.7865 166.736 33.9688C166.899 34.1445 167.186 34.2324 167.596 34.2324C167.869 34.2324 168.146 34.1999 168.426 34.1348V35.9707C167.885 36.1204 167.365 36.1953 166.863 36.1953C165.04 36.1953 164.129 35.1895 164.129 33.1777V27.1914H162.391V25.4336H164.129V22.8652H166.502ZM172.527 26.5859C173.302 25.6875 174.282 25.2383 175.467 25.2383C177.719 25.2383 178.862 26.5241 178.895 29.0957V36H176.521V29.1836C176.521 28.4544 176.362 27.9401 176.043 27.6406C175.73 27.3346 175.268 27.1816 174.656 27.1816C173.706 27.1816 172.996 27.6048 172.527 28.4512V36H170.154V21H172.527V26.5859ZM197.41 34.1543C196.896 34.8249 196.183 35.3327 195.271 35.6777C194.36 36.0228 193.325 36.1953 192.166 36.1953C190.975 36.1953 189.92 35.9251 189.002 35.3848C188.084 34.8444 187.374 34.0729 186.873 33.0703C186.378 32.0612 186.121 30.8861 186.102 29.5449V28.4316C186.102 26.2832 186.616 24.6068 187.645 23.4023C188.673 22.1914 190.109 21.5859 191.951 21.5859C193.533 21.5859 194.79 21.9766 195.721 22.7578C196.652 23.5391 197.212 24.6654 197.4 26.1367H194.979C194.705 24.4245 193.712 23.5684 192 23.5684C190.893 23.5684 190.05 23.9688 189.471 24.7695C188.898 25.5638 188.602 26.7324 188.582 28.2754V29.3691C188.582 30.9056 188.904 32.1003 189.549 32.9531C190.2 33.7995 191.102 34.2227 192.254 34.2227C193.517 34.2227 194.415 33.9362 194.949 33.3633V30.5801H192.02V28.7051H197.41V34.1543ZM199.451 30.6191C199.451 29.584 199.656 28.653 200.066 27.8262C200.477 26.9928 201.053 26.3548 201.795 25.9121C202.537 25.4629 203.39 25.2383 204.354 25.2383C205.779 25.2383 206.935 25.6973 207.82 26.6152C208.712 27.5332 209.194 28.7507 209.266 30.2676L209.275 30.8242C209.275 31.8659 209.074 32.7969 208.67 33.6172C208.273 34.4375 207.7 35.0723 206.951 35.5215C206.209 35.9707 205.35 36.1953 204.373 36.1953C202.882 36.1953 201.688 35.7005 200.789 34.7109C199.897 33.7148 199.451 32.39 199.451 30.7363V30.6191ZM201.824 30.8242C201.824 31.9115 202.049 32.7643 202.498 33.3828C202.947 33.9948 203.572 34.3008 204.373 34.3008C205.174 34.3008 205.796 33.9883 206.238 33.3633C206.688 32.7383 206.912 31.8236 206.912 30.6191C206.912 29.5514 206.681 28.7051 206.219 28.0801C205.763 27.4551 205.141 27.1426 204.354 27.1426C203.579 27.1426 202.964 27.4518 202.508 28.0703C202.052 28.6823 201.824 29.6003 201.824 30.8242ZM210.838 30.6191C210.838 29.584 211.043 28.653 211.453 27.8262C211.863 26.9928 212.439 26.3548 213.182 25.9121C213.924 25.4629 214.777 25.2383 215.74 25.2383C217.166 25.2383 218.322 25.6973 219.207 26.6152C220.099 27.5332 220.581 28.7507 220.652 30.2676L220.662 30.8242C220.662 31.8659 220.46 32.7969 220.057 33.6172C219.66 34.4375 219.087 35.0723 218.338 35.5215C217.596 35.9707 216.736 36.1953 215.76 36.1953C214.269 36.1953 213.074 35.7005 212.176 34.7109C211.284 33.7148 210.838 32.39 210.838 30.7363V30.6191ZM213.211 30.8242C213.211 31.9115 213.436 32.7643 213.885 33.3828C214.334 33.9948 214.959 34.3008 215.76 34.3008C216.561 34.3008 217.182 33.9883 217.625 33.3633C218.074 32.7383 218.299 31.8236 218.299 30.6191C218.299 29.5514 218.068 28.7051 217.605 28.0801C217.15 27.4551 216.528 27.1426 215.74 27.1426C214.965 27.1426 214.35 27.4518 213.895 28.0703C213.439 28.6823 213.211 29.6003 213.211 30.8242ZM222.254 30.6387C222.254 28.998 222.638 27.6895 223.406 26.7129C224.181 25.7298 225.206 25.2383 226.482 25.2383C227.687 25.2383 228.634 25.6582 229.324 26.498L229.432 25.4336H231.57V35.6777C231.57 37.0645 231.137 38.1582 230.271 38.959C229.412 39.7598 228.25 40.1602 226.785 40.1602C226.01 40.1602 225.252 39.9974 224.51 39.6719C223.774 39.3529 223.214 38.9329 222.83 38.4121L223.953 36.9863C224.682 37.8522 225.581 38.2852 226.648 38.2852C227.436 38.2852 228.058 38.0703 228.514 37.6406C228.969 37.2174 229.197 36.5924 229.197 35.7656V35.0527C228.514 35.8145 227.602 36.1953 226.463 36.1953C225.226 36.1953 224.214 35.7038 223.426 34.7207C222.645 33.7376 222.254 32.377 222.254 30.6387ZM224.617 30.8438C224.617 31.9049 224.832 32.7415 225.262 33.3535C225.698 33.959 226.3 34.2617 227.068 34.2617C228.025 34.2617 228.735 33.8516 229.197 33.0312V28.3828C228.748 27.582 228.045 27.1816 227.088 27.1816C226.307 27.1816 225.698 27.4909 225.262 28.1094C224.832 28.7279 224.617 29.6393 224.617 30.8438ZM236.541 36H234.168V21H236.541V36ZM243.787 36.1953C242.283 36.1953 241.062 35.7233 240.125 34.7793C239.194 33.8288 238.729 32.5658 238.729 30.9902V30.6973C238.729 29.6426 238.93 28.7018 239.334 27.875C239.744 27.0417 240.317 26.3939 241.053 25.9316C241.788 25.4694 242.609 25.2383 243.514 25.2383C244.952 25.2383 246.062 25.6973 246.844 26.6152C247.632 27.5332 248.025 28.832 248.025 30.5117V31.4688H241.121C241.193 32.3411 241.482 33.0312 241.99 33.5391C242.505 34.0469 243.149 34.3008 243.924 34.3008C245.011 34.3008 245.896 33.8613 246.58 32.9824L247.859 34.2031C247.436 34.8346 246.87 35.3262 246.16 35.6777C245.457 36.0228 244.666 36.1953 243.787 36.1953ZM243.504 27.1426C242.853 27.1426 242.326 27.3704 241.922 27.8262C241.525 28.2819 241.271 28.9167 241.16 29.7305H245.682V29.5547C245.63 28.7604 245.418 28.1615 245.047 27.7578C244.676 27.3477 244.161 27.1426 243.504 27.1426Z" fill="black" fill-opacity="0.54"/>
</g>
<defs>
<filter id="filter0_dd_1_43" x="0" y="0" width="267" height="62" filterUnits="userSpaceOnUse" color-interpolation-filters="sRGB">
<feFlood flood-opacity="0" result="BackgroundImageFix"/>
<feColorMatrix in="SourceAlpha" type="matrix" values="0 0 0 0 0 0 0 0 0 0 0 0 0 0 0 0 0 0 127 0" result="hardAlpha"/>
<feOffset dy="2"/>
<feGaussianBlur stdDeviation="1.5"/>
<feColorMatrix type="matrix" values="0 0 0 0 0 0 0 0 0 0 0 0 0 0 0 0 0 0 0.168 0"/>
<feBlend mode="normal" in2="BackgroundImageFix" result="effect1_dropShadow_1_43"/>
<feColorMatrix in="SourceAlpha" type="matrix" values="0 0 0 0 0 0 0 0 0 0 0 0 0 0 0 0 0 0 127 0" result="hardAlpha"/>
<feOffset/>
<feGaussianBlur stdDeviation="1.5"/>
<feColorMatrix type="matrix" values="0 0 0 0 0 0 0 0 0 0 0 0 0 0 0 0 0 0 0.084 0"/>
<feBlend mode="normal" in2="effect1_dropShadow_1_43" result="effect2_dropShadow_1_43"/>
<feBlend mode="normal" in="SourceGraphic" in2="effect2_dropShadow_1_43" result="shape"/>
</filter>
</defs>
</svg>
